<?xml version="1.0" encoding="utf-8"?>
<!-- Generator: Adobe Illustrator 25.1.0, SVG Export Plug-In . SVG Version: 6.00 Build 0)  -->
<svg version="1.1" id="Layer_1" xmlns="http://www.w3.org/2000/svg" xmlns:xlink="http://www.w3.org/1999/xlink" x="0px" y="0px"
	 viewBox="0 0 22 19" style="enable-background:new 0 0 22 19;" xml:space="preserve">
<path d="M20.3,9.8c2.3-2.2,2.3-5.9,0-8.1c-2.3-2.2-6-2.2-8.2,0L11,2.8L9.9,1.7c-2.3-2.3-6-2.3-8.2,0C0.6,2.8,0,4.2,0,5.7
	s0.6,3,1.7,4.1L11,19L20.3,9.8z M1.4,5.7c0-1.2,0.4-2.2,1.3-3c0.9-0.8,2-1.3,3.1-1.3S8,1.9,8.8,2.7L11,4.8l2.2-2.1
	c1.7-1.7,4.4-1.7,6.1,0c0.8,0.8,1.3,1.9,1.3,3s-0.4,2.2-1.3,3L11,16.9L2.7,8.8C1.9,7.9,1.4,6.9,1.4,5.7z"/>
</svg>
